<svg
	xmlns:xlink="http://www.w3.org/1999/xlink"
	xmlns="http://www.w3.org/2000/svg" version="1.1"
	width="512" height="512" viewBox="0 0 100 100">

<!-- nodes -->
<g><ellipse fill="#e7d4e8" cx="82" cy="76" rx="2" ry="2" stroke="#101010"/></g> <!--Node 0-->
<g><ellipse fill="#e7d4e8" cx="96" cy="44" rx="2" ry="2" stroke="#404040"/></g>
<g><ellipse fill="#e7d4e8" cx="50" cy="5"  rx="2" ry="2" stroke="#404040"/></g>
<g><ellipse fill="#e7d4e8" cx="49" cy="8"  rx="2" ry="2" stroke="#404040"/></g>
<g><ellipse fill="#e7d4e8" cx="13" cy="7"  rx="2" ry="2" stroke="#404040"/></g>
<g><ellipse fill="#e7d4e8" cx="29" cy="89" rx="2" ry="2" stroke="#404040"/></g>
<g><ellipse fill="#e7d4e8" cx="58" cy="30" rx="2" ry="2" stroke="#404040"/></g>
<g><ellipse fill="#e7d4e8" cx="84" cy="39" rx="2" ry="2" stroke="#404040"/></g>

<g><ellipse fill="#e7d4e8" cx="14" cy="24" rx="2" ry="2" stroke="#000080"/></g>
<g><ellipse fill="#e7d4e8" cx="12" cy="39" rx="2" ry="2" stroke="#000080"/></g>
<g><ellipse fill="#e7d4e8" cx="3"  cy="82" rx="2" ry="2" stroke="#000080"/></g>
<g><ellipse fill="#e7d4e8" cx="5"  cy="10" rx="2" ry="2" stroke="#000080"/></g>
<g><ellipse fill="#e7d4e8" cx="98" cy="52" rx="2" ry="2" stroke="#000080"/></g>
<g><ellipse fill="#e7d4e8" cx="84" cy="25" rx="2" ry="2" stroke="#000080"/></g>
<g><ellipse fill="#e7d4e8" cx="61" cy="59" rx="2" ry="2" stroke="#000080"/></g>
<g><ellipse fill="#e7d4e8" cx="1"  cy="65" rx="2" ry="2" stroke="#000080"/></g>

<g><ellipse fill="#e7d4e8" cx="88" cy="51" rx="2" ry="2" stroke="#008000"/></g>
<g><ellipse fill="#e7d4e8" cx="91" cy="2"  rx="2" ry="2" stroke="#008000"/></g>
<g><ellipse fill="#e7d4e8" cx="19" cy="32" rx="2" ry="2" stroke="#008000"/></g>
<g><ellipse fill="#e7d4e8" cx="93" cy="3"  rx="2" ry="2" stroke="#008000"/></g>
<g><ellipse fill="#e7d4e8" cx="50" cy="93" rx="2" ry="2" stroke="#008000"/></g>
<g><ellipse fill="#e7d4e8" cx="98" cy="14" rx="2" ry="2" stroke="#008000"/></g>
<g><ellipse fill="#e7d4e8" cx="5"  cy="42" rx="2" ry="2" stroke="#008000"/></g>
<g><ellipse fill="#e7d4e8" cx="42" cy="9"  rx="2" ry="2" stroke="#008000"/></g>

<g><ellipse fill="#e7d4e8" cx="61" cy="62" rx="2" ry="2" stroke="#800000"/></g>
<g><ellipse fill="#e7d4e8" cx="9"  cy="97" rx="2" ry="2" stroke="#800000"/></g>
<g><ellipse fill="#e7d4e8" cx="80" cy="55" rx="2" ry="2" stroke="#800000"/></g>
<g><ellipse fill="#e7d4e8" cx="57" cy="69" rx="2" ry="2" stroke="#800000"/></g>
<g><ellipse fill="#e7d4e8" cx="23" cy="15" rx="2" ry="2" stroke="#800000"/></g>
<g><ellipse fill="#e7d4e8" cx="20" cy="70" rx="2" ry="2" stroke="#800000"/></g>
<g><ellipse fill="#e7d4e8" cx="85" cy="60" rx="2" ry="2" stroke="#800000"/></g>
<g><ellipse fill="#e7d4e8" cx="98" cy="5"  rx="2" ry="2" stroke="#800000"/></g>
</svg>
